<svg id="Layer_1" data-name="Layer 1" xmlns="http://www.w3.org/2000/svg" viewBox="0 0 480 480"><defs><style>.cls-1{fill:#0056aa;opacity:0.91;}.cls-2{fill:#2ca8fa;}.cls-3{fill:#1791f6;}.cls-4{fill:#2284d6;}.cls-5{fill:#fff;}</style></defs><title>icon</title><rect class="cls-1" x="41" y="45" width="396" height="396" rx="79.2"/><rect class="cls-2" x="41" y="39" width="396" height="396" rx="79.2"/><circle class="cls-3" cx="227" cy="155" r="33"/><path class="cls-3" d="M50,392.31a114,114,0,1,0-9-193V355.8A78.49,78.49,0,0,0,50,392.31Z"/><polygon class="cls-3" points="369.88 334.29 328.47 387.88 395.59 396.94 369.88 334.29"/><polygon class="cls-4" points="80 157 64.16 192.61 14.44 192.61 0.44 174.61 80 157"/><polygon class="cls-4" points="466.19 138.27 480.19 156.27 480.19 192.74 426.8 192.74 426.8 245.57 391.3 245.57 377.3 227.57 412.8 174.74 466.19 138.27"/><polygon class="cls-4" points="171.09 138.29 185.09 156.29 185.09 192.61 121.52 192.61 121.52 371.03 78.16 371.03 64.16 353.03 107.52 174.61 171.09 138.29"/><polygon class="cls-4" points="243.43 252.14 252.75 286.92 231.06 369.19 191.07 369.19 190.21 368.14 177.07 352.19 243.43 252.14"/><polygon class="cls-4" points="201.37 281.92 198 329 167.85 196.62 181.85 213.62 201.37 281.92"/><polygon class="cls-4" points="294.6 280.85 289 330 263.5 196.62 277.5 213.62 294.6 280.85"/><polygon class="cls-4" points="359.74 196.62 373.74 213.62 323.79 369.19 284.24 369.19 270.24 352.19 359.74 196.62"/><polygon class="cls-4" points="394 162 377.3 192.74 338.05 192.74 324.05 174.74 394 162"/><polygon class="cls-4" points="426.8 103.44 426.8 138.27 400 157 412.8 85.44 426.8 103.44"/><polygon class="cls-5" points="466.19 138.27 466.19 174.74 412.8 174.74 412.8 227.57 377.3 227.57 377.3 174.74 324.05 174.74 324.05 138.27 377.3 138.27 377.3 85.44 412.8 85.44 412.8 138.27 466.19 138.27"/><polygon class="cls-5" points="359.74 196.62 309.79 352.19 270.24 352.19 252.75 286.92 243.43 252.14 217.06 352.19 177.07 352.19 127.85 196.62 167.85 196.62 197 298.58 201.37 281.92 210.7 246.45 223.8 196.62 263.5 196.62 289.43 298.58 294.6 280.85 319.16 196.62 359.74 196.62"/><polygon class="cls-5" points="171.09 138.29 171.09 174.61 107.52 174.61 107.52 353.03 64.16 353.03 64.16 174.61 0.44 174.61 0.44 138.29 171.09 138.29"/></svg>