<svg id="Layer_1" data-name="Layer 1" xmlns="http://www.w3.org/2000/svg" xmlns:xlink="http://www.w3.org/1999/xlink" viewBox="0 0 480 480"><defs><style>.cls-1{fill:none;}.cls-2{fill:#0056aa;opacity:0.91;}.cls-3{fill:#2ca8fa;stroke-miterlimit:10;stroke-width:0.5px;stroke:url(#linear-gradient);}.cls-4{fill:#1791f6;}.cls-5{fill:#2284d6;}.cls-6{fill:#fff;}.cls-7{clip-path:url(#clip-path);}.cls-8{fill:url(#linear-gradient-2);}.cls-9{opacity:0.53;fill:url(#linear-gradient-3);}.cls-10{fill:url(#linear-gradient-4);}</style><linearGradient id="linear-gradient" x1="239" y1="435.25" x2="239" y2="38.75" gradientUnits="userSpaceOnUse"><stop offset="0" stop-color="#fff" stop-opacity="0"/><stop offset="0.37" stop-color="#fff" stop-opacity="0.01"/><stop offset="0.51" stop-color="#fff" stop-opacity="0.03"/><stop offset="0.6" stop-color="#fff" stop-opacity="0.08"/><stop offset="0.68" stop-color="#fff" stop-opacity="0.15"/><stop offset="0.75" stop-color="#fff" stop-opacity="0.23"/><stop offset="0.8" stop-color="#fff" stop-opacity="0.34"/><stop offset="0.86" stop-color="#fff" stop-opacity="0.47"/><stop offset="0.91" stop-color="#fff" stop-opacity="0.61"/><stop offset="0.95" stop-color="#fff" stop-opacity="0.78"/><stop offset="0.99" stop-color="#fff" stop-opacity="0.96"/><stop offset="1" stop-color="#fff"/></linearGradient><clipPath id="clip-path"><path class="cls-1" d="M41,192.61m0-54.32V118.2A79.43,79.43,0,0,1,120.2,39H357.8A79.43,79.43,0,0,1,437,118.2v20.07h29.19l14,18v36.47H437V355.8A79.43,79.43,0,0,1,357.8,435H120.2A79.43,79.43,0,0,1,41,355.8V192.61H14.44l-14-18V138.29H41m0,0,0,54.32,0-54.32,396,54.45,0,0M.44,174.61,437,138.27m0,0,29.19,0"/></clipPath><linearGradient id="linear-gradient-2" x1="239" y1="469.35" x2="239" y2="281.35" gradientUnits="userSpaceOnUse"><stop offset="0" stop-color="#4eecfe"/><stop offset="0.07" stop-color="#51ecfe" stop-opacity="0.98"/><stop offset="0.16" stop-color="#5bedfe" stop-opacity="0.92"/><stop offset="0.25" stop-color="#6ceffe" stop-opacity="0.83"/><stop offset="0.35" stop-color="#83f2fe" stop-opacity="0.7"/><stop offset="0.45" stop-color="#a1f5fe" stop-opacity="0.53"/><stop offset="0.55" stop-color="#c5f9ff" stop-opacity="0.33"/><stop offset="0.65" stop-color="#effdff" stop-opacity="0.09"/><stop offset="0.69" stop-color="#fff" stop-opacity="0"/></linearGradient><linearGradient id="linear-gradient-3" x1="240.31" y1="156.37" x2="240.31" y2="435" gradientUnits="userSpaceOnUse"><stop offset="0" stop-color="#258fd2"/><stop offset="0.08" stop-color="#2b92d3" stop-opacity="0.97"/><stop offset="0.19" stop-color="#3b9bd7" stop-opacity="0.9"/><stop offset="0.3" stop-color="#57a9dc" stop-opacity="0.77"/><stop offset="0.43" stop-color="#7dbce4" stop-opacity="0.6"/><stop offset="0.56" stop-color="#aed6ee" stop-opacity="0.37"/><stop offset="0.7" stop-color="#eaf4fb" stop-opacity="0.1"/><stop offset="0.75" stop-color="#fff" stop-opacity="0"/></linearGradient><linearGradient id="linear-gradient-4" x1="240.31" y1="-1.42" x2="240.31" y2="181.58" gradientUnits="userSpaceOnUse"><stop offset="0.05" stop-color="#fff"/><stop offset="1" stop-color="#fff" stop-opacity="0.4"/></linearGradient></defs><title>icon</title><rect class="cls-2" x="41" y="45" width="396" height="396" rx="79.2"/><rect class="cls-3" x="41" y="39" width="396" height="396" rx="79.2"/><circle class="cls-4" cx="227" cy="155" r="33"/><path class="cls-4" d="M50,392.31a114,114,0,1,0-9-193V355.8A78.49,78.49,0,0,0,50,392.31Z"/><polygon class="cls-4" points="369.88 334.29 328.47 387.88 395.59 396.94 369.88 334.29"/><polygon class="cls-5" points="80 157 64.16 192.61 14.44 192.61 0.44 174.61 80 157"/><polygon class="cls-5" points="466.19 138.27 480.19 156.27 480.19 192.74 426.8 192.74 426.8 245.57 391.3 245.57 377.3 227.57 412.8 174.74 466.19 138.27"/><polygon class="cls-5" points="171.09 138.29 185.09 156.29 185.09 192.61 121.52 192.61 121.52 371.03 78.16 371.03 64.16 353.03 107.52 174.61 171.09 138.29"/><polygon class="cls-5" points="243.43 252.14 252.75 286.92 231.06 369.19 191.07 369.19 190.21 368.14 177.07 352.19 243.43 252.14"/><polygon class="cls-5" points="201.37 281.92 198 329 167.85 196.62 181.85 213.62 201.37 281.92"/><polygon class="cls-5" points="294.6 280.85 289 330 263.5 196.62 277.5 213.62 294.6 280.85"/><polygon class="cls-5" points="359.74 196.62 373.74 213.62 323.79 369.19 284.24 369.19 270.24 352.19 359.74 196.62"/><polygon class="cls-5" points="394 162 377.3 192.74 338.05 192.74 324.05 174.74 394 162"/><polygon class="cls-5" points="426.8 103.44 426.8 138.27 400 157 412.8 85.44 426.8 103.44"/><polygon class="cls-6" points="466.19 138.27 466.19 174.74 412.8 174.74 412.8 227.57 377.3 227.57 377.3 174.74 324.05 174.74 324.05 138.27 377.3 138.27 377.3 85.44 412.8 85.44 412.8 138.27 466.19 138.27"/><polygon class="cls-6" points="359.74 196.62 309.79 352.19 270.24 352.19 252.75 286.92 243.43 252.14 217.06 352.19 177.07 352.19 127.85 196.62 167.85 196.62 197 298.58 201.37 281.92 210.7 246.45 223.8 196.62 263.5 196.62 289.43 298.58 294.6 280.85 319.16 196.62 359.74 196.62"/><polygon class="cls-6" points="171.09 138.29 171.09 174.61 107.52 174.61 107.52 353.03 64.16 353.03 64.16 174.61 0.44 174.61 0.44 138.29 171.09 138.29"/><g class="cls-7"><path class="cls-8" d="M437,319c-35.67-42.68-109.14-72-194-72-91.81,0-170.3,34.29-202,82.73V355.8A79.43,79.43,0,0,0,120.2,435H357.8A79.43,79.43,0,0,0,437,355.8Z"/><path class="cls-9" d="M480.19,161.18C437.25,197.2,347.18,222,243,222,134.25,222,40.88,195,.44,156.37v18.24l14,18H41V355.8a78.48,78.48,0,0,0,5.81,29.64c36.28,24.06,81.62,41.5,132.07,49.56H306.12c46-7.35,87.7-22.48,122.2-43.31A78.49,78.49,0,0,0,437,355.8V192.74h43.19Z"/><path class="cls-10" d="M437,138.27V118.2A79.43,79.43,0,0,0,357.8,39H120.2A79.43,79.43,0,0,0,41,118.2v20.09H.44v18.09C40.89,195,134.26,222,243,222c104.17,0,194.24-24.8,237.19-60.82v-4.91l-14-18Z"/></g></svg>